<?xml version="1.0" standalone="no"?><!DOCTYPE svg PUBLIC "-//W3C//DTD SVG 1.1//EN" "http://www.w3.org/Graphics/SVG/1.1/DTD/svg11.dtd"><svg t="1722455128521" class="icon" viewBox="0 0 1024 1024" version="1.1" xmlns="http://www.w3.org/2000/svg" p-id="38153" xmlns:xlink="http://www.w3.org/1999/xlink" width="200" height="200"><path d="M921.6 512c0-51.13856-49.32608-95.67232-122.17344-119.07072 34.9696-68.06528 38.36928-134.4 2.2016-170.5984-36.15744-36.12672-102.53312-32.72704-170.55744 2.2016C607.67232 151.72608 563.12832 102.4 512 102.4s-95.67232 49.32608-119.07072 122.13248c-68.05504-34.92864-134.4-38.32832-170.55744-2.2016-36.16768 36.1984-32.768 102.53312 2.2016 170.5984C151.72608 416.32768 102.4 460.86144 102.4 512c0 51.12832 49.29536 95.66208 122.17344 119.06048-34.9696 68.00384-38.36928 134.4-2.2016 170.53696 36.15744 36.1984 102.5024 32.79872 170.55744-2.2016C416.32768 872.26368 460.87168 921.6 512 921.6s95.67232-49.33632 119.07072-122.20416c68.03456 35.00032 134.4 38.4 170.55744 2.2016 36.16768-36.13696 32.768-102.54336-2.2016-170.53696C872.27392 607.66208 921.6 563.12832 921.6 512zM512 665.6c-84.82816 0-153.6-68.80256-153.6-153.6 0-84.86912 68.77184-153.6 153.6-153.6 84.79744 0 153.6 68.73088 153.6 153.6 0 84.79744-68.80256 153.6-153.6 153.6z" p-id="38154"></path><path d="M597.32992 512c0 47.06304-38.22592 85.32992-85.32992 85.32992-47.13472 0-85.32992-38.26688-85.32992-85.32992a85.34016 85.34016 0 0 1 170.65984 0z" p-id="38155"></path></svg>