<?xml version="1.0" standalone="no"?><!DOCTYPE svg PUBLIC "-//W3C//DTD SVG 1.1//EN" "http://www.w3.org/Graphics/SVG/1.1/DTD/svg11.dtd"><svg t="1722454285217" class="icon" viewBox="0 0 1024 1024" version="1.1" xmlns="http://www.w3.org/2000/svg" p-id="44618" xmlns:xlink="http://www.w3.org/1999/xlink" width="200" height="200"><path d="M889.6 928H140.8c-51.2 0-96-44.8-96-96V281.6c0-51.2 44.8-96 96-96H896c51.2 0 96 44.8 96 96V832c-6.4 51.2-51.2 96-102.4 96zM140.8 217.6c-38.4 0-64 32-64 64V832c0 38.4 32 64 64 64H896c38.4 0 64-32 64-64V281.6c0-38.4-32-64-64-64H140.8z" fill="#333333" p-id="44619"></path><path d="M729.6 217.6H294.4l192-160c12.8-12.8 32-12.8 51.2 0l192 160zM384 185.6h256L512 83.2h-6.4L384 185.6z m0 0" fill="#333333" p-id="44620"></path><path d="M473.6 83.2c0 25.6 19.2 44.8 38.4 44.8 25.6 0 38.4-19.2 38.4-38.4 6.4-25.6-12.8-44.8-38.4-44.8-19.2 0-38.4 19.2-38.4 38.4z m0 0M294.4 550.4H172.8c-19.2 0-32-12.8-32-32s12.8-32 32-32h121.6c19.2 0 32 12.8 32 32s-12.8 32-32 32zM384 665.6H172.8c-19.2 0-32-12.8-32-32s12.8-32 32-32H384c19.2 0 32 12.8 32 32s-12.8 32-32 32zM460.8 787.2H172.8c-19.2 0-32-12.8-32-32s12.8-32 32-32h294.4c19.2 0 32 12.8 32 32-6.4 19.2-19.2 32-38.4 32zM691.2 396.8H569.6c-19.2 0-32-12.8-32-32s12.8-32 32-32h121.6c19.2 0 32 12.8 32 32s-12.8 32-32 32zM780.8 505.6H569.6c-19.2 0-32-12.8-32-32 0-12.8 12.8-25.6 32-25.6h217.6c19.2 0 32 12.8 32 32-6.4 12.8-19.2 25.6-38.4 25.6zM857.6 627.2H569.6c-19.2 0-32-12.8-32-32s12.8-32 32-32h294.4c19.2 0 32 12.8 32 32-6.4 19.2-19.2 32-38.4 32z" fill="#333333" p-id="44621"></path></svg>