<?xml version="1.0" standalone="no"?><!DOCTYPE svg PUBLIC "-//W3C//DTD SVG 1.1//EN" "http://www.w3.org/Graphics/SVG/1.1/DTD/svg11.dtd"><svg t="1722453763354" class="icon" viewBox="0 0 1024 1024" version="1.1" xmlns="http://www.w3.org/2000/svg" p-id="27626" xmlns:xlink="http://www.w3.org/1999/xlink" width="200" height="200"><path d="M781.824 160.256C763.904 55.296 664.576-14.848 560.128 3.072c-80.384 13.824-143.872 76.8-157.184 157.184H160.256v242.176C55.296 420.352-14.848 519.68 3.072 624.128c13.824 80.384 76.8 143.872 157.184 157.184V1024h308.224c-3.072-10.24-4.096-20.992-4.608-32.256 0-10.752 1.536-21.504 4.608-32.256 18.944-68.096 89.6-108.032 157.696-89.6 43.52 11.776 77.312 46.08 89.6 89.6 2.56 10.24 4.096 20.992 4.608 32.256 0 10.752-1.536 21.504-4.608 32.256H1024v-308.736c-10.24 3.072-20.992 4.608-32.256 4.608-10.752 0-21.504-1.536-32.256-4.096-68.608-17.408-110.08-87.552-92.16-156.16 11.776-45.568 47.104-80.896 92.16-92.16 10.24-2.56 20.992-4.096 32.256-4.096 10.752 0.512 21.504 2.048 32.256 5.12V160.256h-242.176z m17.92 431.616c0 93.696 67.584 174.08 160.256 189.952v178.176h-178.688c-18.944-104.448-118.784-174.08-223.232-155.136-78.848 14.336-140.8 76.288-155.136 155.136H224.256v-244.736c-10.752 3.072-22.528 4.608-33.792 4.608-10.752 0-21.504-1.536-32.256-4.096-68.608-17.408-110.08-87.552-92.16-156.16 11.776-45.568 47.104-80.896 92.16-92.16 10.24-2.56 20.992-4.096 32.256-4.096s22.528 2.048 33.792 5.12V224.256h244.736c-3.072-10.752-5.12-22.016-5.12-33.792 0-10.752 1.536-21.504 4.096-32.256 17.408-68.608 87.552-110.08 156.16-92.16 45.568 11.776 80.896 47.104 92.16 92.16 2.56 10.24 4.096 21.504 4.096 32.256 0 11.264-1.536 22.528-4.608 33.792h244.736v178.176c-93.184 15.872-160.768 95.744-160.768 189.44z" fill="#78858C" p-id="27627"></path></svg>