<?xml version="1.0" standalone="no"?><!DOCTYPE svg PUBLIC "-//W3C//DTD SVG 1.1//EN" "http://www.w3.org/Graphics/SVG/1.1/DTD/svg11.dtd"><svg t="1722454461276" class="icon" viewBox="0 0 1024 1024" version="1.1" xmlns="http://www.w3.org/2000/svg" p-id="5722" xmlns:xlink="http://www.w3.org/1999/xlink" width="200" height="200"><path d="M807.6032 652.9536c-56.8064 0-103.2192 30.4128-124.8256 77.6192l-274.432-116.8128c16-24.832 24.832-55.2192 24.832-88.0128 0-13.6192-1.6128-27.2128-4.8128-40.0128l175.2064-136.0128c23.2192 17.5872 52.8128 28.0064 85.632 28.0064 79.2064 0 138.3936-59.2128 138.3936-137.6256s-59.1872-137.6256-138.3936-137.6256c-79.232 0-137.6256 59.2128-137.6256 137.6256 0 19.9936 3.9936 38.4 10.3936 54.4L400.384 418.56c-32-48.0256-84.8128-81.6128-144.8192-81.6128a177.2288 177.2288 0 0 0-177.6384 177.6128 177.2288 177.2288 0 0 0 177.6384 177.6128c36.8128 0 71.1936-9.6 99.2-27.1872l315.2384 134.4c4.0192 74.4192 61.6192 129.6384 137.6256 129.6384 79.2064 0 137.6256-59.2128 137.6256-137.6256s-59.2128-138.4192-137.6256-138.4192zM689.2032 160.0768c39.168 0 79.2064 29.6192 79.2064 79.232 0 49.5872-29.6192 79.2064-79.2064 79.2064-49.6128 0-79.232-39.2192-79.232-79.2064 0-40.0128 40.0128-79.232 79.232-79.232zM255.5392 632.96c-59.2128 0-108.8-49.6128-108.8-108.8256 0-59.2128 49.5872-108.8 108.8-108.8 59.2128 0 108.8 49.5872 108.8 108.8-0.768 59.2128-49.5872 108.8-108.8 108.8z m552.064 236.8c-49.6128 0-79.2064-29.5936-79.2064-79.1808 0-49.6128 39.1936-79.232 79.2064-79.232s79.2064 29.6192 79.2064 79.232c-0.768 49.5872-30.3872 79.2064-79.2064 79.2064z" fill="#655EFF" p-id="5723"></path></svg>